<svg width="156" height="32" viewBox="0 0 156 32" fill="none" xmlns="http://www.w3.org/2000/svg">
<path d="M38.0587 18.5522V3.19309L45.453 3.19309C46.8865 3.19309 48.1226 3.42714 49.1611 3.89522C50.2143 4.36331 51.0262 5.03618 51.5967 5.91385C52.1671 6.77688 52.4524 7.80082 52.4524 8.98566C52.4524 10.1705 52.1671 11.1944 51.5967 12.0575C51.0262 12.9059 50.2143 13.5568 49.1611 14.0103C48.1226 14.4637 46.8865 14.6905 45.453 14.6905L40.9331 14.6905L43.2369 12.5621V18.5522H38.0587ZM47.2522 18.5522L43.4783 12.9571H48.9637L52.7815 18.5522L47.2522 18.5522ZM43.2369 13.1326L40.9331 10.7849L45.1239 10.7849C45.8407 10.7849 46.3673 10.624 46.7037 10.3022C47.0548 9.98035 47.2303 9.54152 47.2303 8.98566C47.2303 8.42981 47.0548 7.99098 46.7037 7.66917C46.3673 7.34736 45.8407 7.18646 45.1239 7.18646L40.9331 7.18646L43.2369 4.83871V13.1326ZM59.1471 8.8979H65.9929V12.628L59.1471 12.628V8.8979ZM59.4982 14.6466L67.1777 14.6466V18.5522H54.4077V3.19309L66.8925 3.19309V7.09869L59.4982 7.09869V14.6466ZM76.5216 18.9033C74.1665 18.9033 72.3307 18.2669 71.0143 16.9943C69.6978 15.7217 69.0395 13.9371 69.0395 11.6406V3.19309L74.2177 3.19309V11.487C74.2177 12.6572 74.4298 13.491 74.854 13.9883C75.2782 14.4711 75.8487 14.7124 76.5655 14.7124C77.2969 14.7124 77.8673 14.4711 78.2769 13.9883C78.7011 13.491 78.9132 12.6572 78.9132 11.487V3.19309L84.0037 3.19309V11.6406C84.0037 13.9371 83.3454 15.7217 82.0289 16.9943C80.7124 18.2669 78.8766 18.9033 76.5216 18.9033ZM86.3773 18.5522V3.19309L90.6339 3.19309L98.4451 12.5402L96.4704 12.5402V3.19309L101.517 3.19309V18.5522H97.2603L89.4491 9.20508H91.4238V18.5522H86.3773ZM104.012 18.5522V3.19309L109.19 3.19309V18.5522H104.012ZM111.683 18.5522V3.19309L119.077 3.19309C120.511 3.19309 121.747 3.42714 122.785 3.89522C123.839 4.36331 124.65 5.03618 125.221 5.91385C125.791 6.77688 126.077 7.80082 126.077 8.98566C126.077 10.1705 125.791 11.1944 125.221 12.0575C124.65 12.9059 123.839 13.5568 122.785 14.0103C121.747 14.4637 120.511 14.6905 119.077 14.6905H114.557L116.861 12.5621V18.5522L111.683 18.5522ZM120.876 18.5522L117.102 12.9571L122.588 12.9571L126.406 18.5522H120.876ZM116.861 13.1326L114.557 10.7849H118.748C119.465 10.7849 119.991 10.624 120.328 10.3022C120.679 9.98035 120.854 9.54152 120.854 8.98566C120.854 8.42981 120.679 7.99098 120.328 7.66917C119.991 7.34736 119.465 7.18646 118.748 7.18646L114.557 7.18646L116.861 4.83871V13.1326ZM131.153 18.5522V7.2084L126.655 7.2084V3.19309L140.829 3.19309V7.2084L136.331 7.2084V18.5522L131.153 18.5522ZM147.901 18.9033C146.613 18.9033 145.37 18.757 144.171 18.4644C142.971 18.1719 141.984 17.7915 141.209 17.3235L142.876 13.5495C143.608 13.9737 144.419 14.3175 145.312 14.5808C146.219 14.8294 147.096 14.9538 147.945 14.9538C148.442 14.9538 148.83 14.9245 149.108 14.866C149.4 14.7929 149.612 14.6978 149.744 14.5808C149.875 14.4491 149.941 14.2955 149.941 14.12C149.941 13.8421 149.788 13.6226 149.481 13.4617C149.173 13.3008 148.764 13.1692 148.252 13.0668C147.754 12.9498 147.206 12.8328 146.606 12.7157C146.006 12.5841 145.399 12.4159 144.785 12.2111C144.185 12.0063 143.629 11.7357 143.117 11.3992C142.62 11.0628 142.218 10.624 141.911 10.0827C141.604 9.52689 141.45 8.83939 141.45 8.02024C141.45 7.06944 141.713 6.2064 142.24 5.43113C142.781 4.64124 143.578 4.01225 144.631 3.54416C145.699 3.07607 147.023 2.84203 148.603 2.84203C149.641 2.84203 150.665 2.95174 151.675 3.17115C152.684 3.39057 153.591 3.727 154.395 4.18046L152.838 7.93247C152.077 7.55215 151.338 7.26691 150.621 7.07675C149.919 6.88659 149.232 6.79151 148.559 6.79151C148.062 6.79151 147.667 6.83539 147.374 6.92316C147.082 7.01092 146.869 7.12795 146.738 7.27422C146.621 7.4205 146.562 7.58141 146.562 7.75694C146.562 8.02024 146.716 8.23234 147.023 8.39324C147.33 8.53952 147.733 8.66386 148.23 8.76625C148.742 8.86864 149.298 8.97835 149.897 9.09537C150.512 9.21239 151.119 9.3733 151.719 9.57809C152.318 9.78288 152.867 10.0535 153.364 10.3899C153.876 10.7264 154.286 11.1652 154.593 11.7064C154.9 12.2476 155.054 12.9205 155.054 13.725C155.054 14.6612 154.783 15.5242 154.242 16.3141C153.715 17.0894 152.925 17.7184 151.872 18.2011C150.819 18.6692 149.495 18.9033 147.901 18.9033Z" fill="white"/>
<path opacity="0.5" d="M41.6132 28.4366L41.0784 27.1941H38.6676L38.1328 28.4366H36.7669L39.2518 22.6852H40.4942L42.9791 28.4366H41.6132ZM39.8771 24.3966L39.153 26.0669H40.593L39.8771 24.3966ZM49.9575 24.5941C49.9575 25.5156 49.5927 26.1108 48.8632 26.3796L50.3195 28.4366H48.7397L47.4644 26.6017H46.5757V28.4366H45.2922V22.6852H47.4726C48.3667 22.6852 49.003 22.836 49.3815 23.1377C49.7655 23.4394 49.9575 23.9249 49.9575 24.5941ZM47.5137 25.4909C47.9526 25.4909 48.2515 25.4196 48.4106 25.277C48.5697 25.1344 48.6492 24.9095 48.6492 24.6023C48.6492 24.2896 48.5669 24.0757 48.4024 23.9605C48.2378 23.8453 47.9498 23.7877 47.5384 23.7877H46.5757V25.4909H47.5137ZM57.063 22.6852V23.8289H54.1996V25.0137H56.775V26.108H54.1996V27.3011H57.1535V28.4366H52.916V22.6852H57.063ZM62.3807 23.7959V28.4366H61.0972V23.7959H59.468V22.6852H64.0099V23.7959H62.3807ZM70.1678 22.6852H71.4514V28.4366H70.1678V26.1739L67.8804 26.1739V28.4366L66.5968 28.4366V22.6852H67.8804V25.0878L70.1678 25.0878V22.6852ZM77.1511 27.3011C77.7819 27.3011 78.2976 27.0515 78.698 26.5524L79.5208 27.3998C78.868 28.1349 78.0973 28.5024 77.2087 28.5024C76.3256 28.5024 75.596 28.2227 75.02 27.6631C74.4496 27.1036 74.1643 26.3988 74.1643 25.5485C74.1643 24.6928 74.455 23.9797 75.0365 23.4092C75.6234 22.8387 76.3393 22.5535 77.184 22.5535C78.1275 22.5535 78.9174 22.9128 79.5537 23.6314L78.7556 24.5365C78.3497 24.0318 77.845 23.7795 77.2416 23.7795C76.7589 23.7795 76.3448 23.9386 75.9992 24.2567C75.6591 24.5694 75.489 24.9945 75.489 25.5321C75.489 26.0642 75.6509 26.492 75.9745 26.8157C76.2981 27.1393 76.6903 27.3011 77.1511 27.3011ZM86.2394 28.4366L85.7045 27.1941H83.2937L82.7589 28.4366H81.393L83.8779 22.6852H85.1203L87.6052 28.4366H86.2394ZM84.5032 24.3966L83.7792 26.0669H85.2191L84.5032 24.3966ZM89.9183 28.4366V22.6852H91.2019V27.2929H93.6538V28.4366H89.9183ZM99.8114 22.6852H101.095V28.4366H99.8114V26.1739H97.524V28.4366H96.2404V22.6852H97.524V25.0878H99.8114V22.6852ZM108.3 22.6852V23.8289H105.437V25.0137H108.012V26.108H105.437V27.3011H108.391V28.4366H104.154V22.6852H108.3Z" fill="white"/>
<path d="M9.89761 22.1772L9.89761 21.1505L8.87089 21.1505L4.10688 21.1505C2.40575 21.1505 1.02671 19.7715 1.02671 18.0703L1.02671 12.7314C1.02671 11.0302 2.40575 9.65118 4.10689 9.65118L9.85655 9.65118C16.094 9.65118 21.1505 14.7077 21.1505 20.9452L21.1505 27.1055C21.1505 28.8066 19.7715 30.1857 18.0703 30.1857L12.9778 30.1857C11.2767 30.1857 9.89761 28.8066 9.89761 27.1055L9.89761 22.1772Z" stroke="#EE2B3B" stroke-width="2.05345"/>
<path d="M20.9046 9.03518V10.0619H21.9313H26.6953C28.3965 10.0619 29.7755 11.4409 29.7755 13.1421V18.481C29.7755 20.1822 28.3965 21.5612 26.6953 21.5612H20.9457C14.7082 21.5612 9.65169 16.5047 9.65169 10.2672V4.1069C9.65169 2.40577 11.0307 1.02672 12.7319 1.02672H17.8244C19.5256 1.02672 20.9046 2.40577 20.9046 4.1069V9.03518Z" stroke="#AD37E0" stroke-width="2.05345"/>
</svg>
