<svg width="408" height="93" viewBox="0 0 408 93" fill="none" xmlns="http://www.w3.org/2000/svg">
<rect x="1.5" y="1.51367" width="405" height="89.9447" rx="44.9724" fill="#1F1F1F" stroke="url(#paint0_linear_28_2)" stroke-width="3"/>
<path d="M45.904 39V25.704H40.768V22.512H54.592V25.704H49.456V39H45.904ZM64.0401 26.304C66.7281 26.304 68.6481 28.296 68.6481 31.104V39H65.2641V31.848C65.2641 30.312 64.3041 29.256 62.9121 29.256C61.4481 29.256 60.3201 30.312 60.3201 31.656V39H56.8161V22.224H60.3201V28.104C61.0881 27.024 62.4561 26.304 64.0401 26.304ZM77.4623 36.192C78.4463 36.192 79.6463 35.736 80.3183 35.088L82.5503 37.368C81.4463 38.52 79.3103 39.288 77.4863 39.288C73.7903 39.288 70.9103 36.576 70.9103 32.76C70.9103 29.016 73.6703 26.304 77.2943 26.304C81.1823 26.304 83.4623 29.256 83.4623 33.936H74.5103C74.9183 35.28 75.9983 36.192 77.4623 36.192ZM77.4383 29.4C76.1183 29.4 75.0143 30.168 74.5583 31.416H80.1023C79.7663 30.192 78.8543 29.4 77.4383 29.4ZM95.656 39L91.432 26.592H94.864L97.216 34.32L99.664 26.592H102.568L105.016 34.32L107.368 26.592H110.8L106.576 39H103.432L101.128 31.2L98.8 39H95.656ZM118.26 26.304C121.5 26.304 123.708 28.344 123.708 31.584V39H120.324V37.752C119.436 38.76 118.02 39.288 116.676 39.288C114.036 39.288 111.996 37.704 111.996 35.328C111.996 32.88 114.276 31.2 117.156 31.2C118.164 31.2 119.268 31.416 120.324 31.824V31.584C120.324 30.264 119.508 29.112 117.468 29.112C116.316 29.112 115.236 29.496 114.252 30L113.076 27.672C114.828 26.784 116.532 26.304 118.26 26.304ZM117.468 36.864C118.812 36.864 120.084 36.24 120.324 35.088V33.936C119.532 33.648 118.62 33.48 117.66 33.48C116.388 33.48 115.38 34.224 115.38 35.232C115.38 36.24 116.268 36.864 117.468 36.864ZM128.413 24.888C127.333 24.888 126.493 24.024 126.493 22.968C126.493 21.984 127.333 21.096 128.413 21.096C129.445 21.096 130.285 21.984 130.285 22.968C130.285 24.024 129.445 24.888 128.413 24.888ZM126.637 39V26.592H130.141V39H126.637ZM139.728 35.928L140.568 38.208C139.848 38.856 138.72 39.288 137.712 39.288C135.528 39.288 133.992 37.728 133.992 35.496V29.424H132.288V26.592H133.992V23.184H137.352V26.592H140.04V29.424H137.352V34.944C137.352 35.76 137.88 36.336 138.528 36.336C139.008 36.336 139.488 36.168 139.728 35.928ZM151.218 24.888C150.138 24.888 149.298 24.024 149.298 22.968C149.298 21.984 150.138 21.096 151.218 21.096C152.25 21.096 153.09 21.984 153.09 22.968C153.09 24.024 152.25 24.888 151.218 24.888ZM149.442 39V26.592H152.946V39H149.442ZM160.661 39.288C158.669 39.288 156.557 38.616 155.069 37.416L156.581 34.992C157.685 35.784 159.077 36.384 160.733 36.384C161.669 36.384 162.341 36 162.341 35.448C162.341 34.68 161.429 34.44 160.157 34.104C157.613 33.48 155.645 32.784 155.621 30.336C155.597 27.984 157.541 26.304 160.469 26.304C162.245 26.304 163.997 26.928 165.365 27.84L163.949 30.336C162.821 29.64 161.525 29.232 160.469 29.232C159.605 29.232 159.005 29.544 159.005 29.976C159.005 30.648 159.509 30.84 161.189 31.296C163.325 31.848 165.701 32.568 165.701 35.28C165.701 37.728 163.709 39.288 160.661 39.288ZM180.299 26.304C183.539 26.304 185.747 28.344 185.747 31.584V39H182.363V37.752C181.475 38.76 180.059 39.288 178.715 39.288C176.075 39.288 174.035 37.704 174.035 35.328C174.035 32.88 176.315 31.2 179.195 31.2C180.203 31.2 181.307 31.416 182.363 31.824V31.584C182.363 30.264 181.547 29.112 179.507 29.112C178.355 29.112 177.275 29.496 176.291 30L175.115 27.672C176.867 26.784 178.571 26.304 180.299 26.304ZM179.507 36.864C180.851 36.864 182.123 36.24 182.363 35.088V33.936C181.571 33.648 180.659 33.48 179.699 33.48C178.427 33.48 177.419 34.224 177.419 35.232C177.419 36.24 178.307 36.864 179.507 36.864ZM188.7 39V22.224H192.204V39H188.7ZM210.023 26.304C212.615 26.304 214.607 28.296 214.607 31.104V39.024H211.247V31.704C211.247 30.264 210.335 29.256 209.039 29.256C207.647 29.256 206.639 30.192 206.639 31.512V39.024H203.279V31.704C203.279 30.264 202.367 29.256 201.095 29.256C199.679 29.256 198.695 30.192 198.695 31.512V39H195.191V26.592H198.695V28.224C199.295 27.048 200.519 26.304 202.055 26.304C203.759 26.304 205.223 27.168 205.991 28.56C206.639 27.192 208.175 26.304 210.023 26.304ZM223.648 39.288C219.952 39.288 216.856 36.312 216.856 32.784C216.856 29.256 219.952 26.304 223.648 26.304C227.32 26.304 230.392 29.256 230.392 32.784C230.392 36.312 227.32 39.288 223.648 39.288ZM223.648 36.336C225.496 36.336 227.056 34.704 227.056 32.784C227.056 30.864 225.496 29.256 223.648 29.256C221.776 29.256 220.216 30.864 220.216 32.784C220.216 34.704 221.776 36.336 223.648 36.336ZM237.419 39.288C235.427 39.288 233.315 38.616 231.827 37.416L233.339 34.992C234.443 35.784 235.835 36.384 237.491 36.384C238.427 36.384 239.099 36 239.099 35.448C239.099 34.68 238.187 34.44 236.915 34.104C234.371 33.48 232.403 32.784 232.379 30.336C232.355 27.984 234.299 26.304 237.227 26.304C239.003 26.304 240.755 26.928 242.123 27.84L240.707 30.336C239.579 29.64 238.283 29.232 237.227 29.232C236.363 29.232 235.763 29.544 235.763 29.976C235.763 30.648 236.267 30.84 237.947 31.296C240.083 31.848 242.459 32.568 242.459 35.28C242.459 37.728 240.467 39.288 237.419 39.288ZM251.337 35.928L252.177 38.208C251.457 38.856 250.329 39.288 249.321 39.288C247.137 39.288 245.601 37.728 245.601 35.496V29.424H243.897V26.592H245.601V23.184H248.961V26.592H251.649V29.424H248.961V34.944C248.961 35.76 249.489 36.336 250.137 36.336C250.617 36.336 251.097 36.168 251.337 35.928ZM267.171 39.288C263.475 39.288 260.379 36.312 260.379 32.784C260.379 29.256 263.475 26.304 267.171 26.304C270.843 26.304 273.915 29.256 273.915 32.784C273.915 36.312 270.843 39.288 267.171 39.288ZM267.171 36.336C269.019 36.336 270.579 34.704 270.579 32.784C270.579 30.864 269.019 29.256 267.171 29.256C265.299 29.256 263.739 30.864 263.739 32.784C263.739 34.704 265.299 36.336 267.171 36.336ZM279.852 39L274.476 26.592H278.148L281.484 34.968L284.748 26.592H288.396L283.092 39H279.852ZM295.337 36.192C296.321 36.192 297.521 35.736 298.193 35.088L300.425 37.368C299.321 38.52 297.185 39.288 295.361 39.288C291.665 39.288 288.785 36.576 288.785 32.76C288.785 29.016 291.545 26.304 295.169 26.304C299.057 26.304 301.337 29.256 301.337 33.936H292.385C292.793 35.28 293.873 36.192 295.337 36.192ZM295.313 29.4C293.993 29.4 292.889 30.168 292.433 31.416H297.977C297.641 30.192 296.729 29.4 295.313 29.4ZM307.212 28.896C308.028 27.288 309.564 26.304 311.46 26.304V29.256C308.868 29.256 307.212 30.744 307.212 33.072V39H303.708V26.592H307.212V28.896ZM314.489 33.192L313.697 22.512H317.657L316.865 33.192H314.489ZM315.665 39.288C314.417 39.288 313.433 38.28 313.433 37.056C313.433 35.928 314.417 34.92 315.665 34.92C316.841 34.92 317.801 35.928 317.801 37.056C317.801 38.28 316.841 39.288 315.665 39.288ZM49.744 67.288C45.016 67.288 40.984 63.376 40.984 58.744C40.984 54.112 45.016 50.224 49.744 50.224C54.52 50.224 58.504 54.112 58.504 58.744C58.504 63.376 54.52 67.288 49.744 67.288ZM49.744 64.072C52.528 64.072 54.88 61.624 54.88 58.744C54.88 55.888 52.528 53.44 49.744 53.44C46.984 53.44 44.632 55.888 44.632 58.744C44.632 61.624 46.984 64.072 49.744 64.072ZM69.2446 54.592H72.7486V67H69.2446V65.44C68.5006 66.568 67.1086 67.288 65.5006 67.288C62.8126 67.288 60.8926 65.296 60.8926 62.488V54.592H64.2766V61.744C64.2766 63.28 65.2366 64.336 66.6286 64.336C68.0926 64.336 69.2206 63.28 69.2206 61.936L69.2446 62.008V54.592ZM79.2588 56.896C80.0748 55.288 81.6108 54.304 83.5068 54.304V57.256C80.9148 57.256 79.2588 58.744 79.2588 61.072V67H75.7548V54.592H79.2588V56.896ZM97.7753 54.304C101.015 54.304 103.223 56.344 103.223 59.584V67H99.8393V65.752C98.9513 66.76 97.5353 67.288 96.1913 67.288C93.5513 67.288 91.5113 65.704 91.5113 63.328C91.5113 60.88 93.7913 59.2 96.6713 59.2C97.6793 59.2 98.7833 59.416 99.8393 59.824V59.584C99.8393 58.264 99.0233 57.112 96.9833 57.112C95.8313 57.112 94.7513 57.496 93.7673 58L92.5913 55.672C94.3433 54.784 96.0473 54.304 97.7753 54.304ZM96.9833 64.864C98.3273 64.864 99.5993 64.24 99.8393 63.088V61.936C99.0473 61.648 98.1353 61.48 97.1753 61.48C95.9033 61.48 94.8953 62.224 94.8953 63.232C94.8953 64.24 95.7833 64.864 96.9833 64.864ZM113.833 54.304C117.145 54.304 119.545 56.992 119.545 60.784C119.545 64.6 117.145 67.288 113.833 67.288C112.105 67.288 110.665 66.544 109.681 65.248V71.128H106.177V54.592H109.681V56.32C110.665 55.048 112.105 54.304 113.833 54.304ZM112.825 64.336C114.769 64.336 116.137 62.872 116.137 60.784C116.137 58.72 114.769 57.256 112.825 57.256C111.121 57.256 109.873 58.504 109.681 60.304V61.264C109.873 63.088 111.121 64.336 112.825 64.336ZM129.676 54.304C132.988 54.304 135.388 56.992 135.388 60.784C135.388 64.6 132.988 67.288 129.676 67.288C127.948 67.288 126.508 66.544 125.524 65.248V71.128H122.02V54.592H125.524V56.32C126.508 55.048 127.948 54.304 129.676 54.304ZM128.668 64.336C130.612 64.336 131.98 62.872 131.98 60.784C131.98 58.72 130.612 57.256 128.668 57.256C126.964 57.256 125.716 58.504 125.524 60.304V61.264C125.716 63.088 126.964 64.336 128.668 64.336ZM146.319 52.888C145.239 52.888 144.399 52.024 144.399 50.968C144.399 49.984 145.239 49.096 146.319 49.096C147.351 49.096 148.191 49.984 148.191 50.968C148.191 52.024 147.351 52.888 146.319 52.888ZM144.543 67V54.592H148.047V67H144.543ZM155.762 67.288C153.77 67.288 151.658 66.616 150.17 65.416L151.682 62.992C152.786 63.784 154.178 64.384 155.834 64.384C156.77 64.384 157.442 64 157.442 63.448C157.442 62.68 156.53 62.44 155.258 62.104C152.714 61.48 150.746 60.784 150.722 58.336C150.698 55.984 152.642 54.304 155.57 54.304C157.346 54.304 159.098 54.928 160.466 55.84L159.05 58.336C157.922 57.64 156.626 57.232 155.57 57.232C154.706 57.232 154.106 57.544 154.106 57.976C154.106 58.648 154.61 58.84 156.29 59.296C158.426 59.848 160.802 60.568 160.802 63.28C160.802 65.728 158.81 67.288 155.762 67.288ZM175.928 67.288C172.256 67.288 169.16 64.312 169.16 60.784C169.16 57.256 172.28 54.304 175.952 54.304C177.968 54.304 179.624 55.12 180.824 56.416L178.496 58.408C177.872 57.712 176.888 57.256 175.928 57.256C174.104 57.256 172.568 58.864 172.568 60.76C172.568 62.704 174.104 64.336 175.952 64.336C176.912 64.336 177.92 63.856 178.568 63.136L180.896 65.104C179.672 66.448 177.992 67.288 175.928 67.288ZM188.843 67.288C185.147 67.288 182.051 64.312 182.051 60.784C182.051 57.256 185.147 54.304 188.843 54.304C192.515 54.304 195.587 57.256 195.587 60.784C195.587 64.312 192.515 67.288 188.843 67.288ZM188.843 64.336C190.691 64.336 192.251 62.704 192.251 60.784C192.251 58.864 190.691 57.256 188.843 57.256C186.971 57.256 185.411 58.864 185.411 60.784C185.411 62.704 186.971 64.336 188.843 64.336ZM212.718 54.304C215.31 54.304 217.302 56.296 217.302 59.104V67.024H213.942V59.704C213.942 58.264 213.03 57.256 211.734 57.256C210.342 57.256 209.334 58.192 209.334 59.512V67.024H205.974V59.704C205.974 58.264 205.062 57.256 203.79 57.256C202.374 57.256 201.39 58.192 201.39 59.512V67H197.886V54.592H201.39V56.224C201.99 55.048 203.214 54.304 204.75 54.304C206.454 54.304 207.918 55.168 208.686 56.56C209.334 55.192 210.87 54.304 212.718 54.304ZM221.999 52.888C220.919 52.888 220.079 52.024 220.079 50.968C220.079 49.984 220.919 49.096 221.999 49.096C223.031 49.096 223.871 49.984 223.871 50.968C223.871 52.024 223.031 52.888 221.999 52.888ZM220.223 67V54.592H223.727V67H220.223ZM233.962 54.304C236.65 54.304 238.57 56.296 238.57 59.104V67H235.186V59.848C235.186 58.312 234.226 57.256 232.834 57.256C231.37 57.256 230.242 58.312 230.242 59.656L230.218 59.584V67H226.714V54.592H230.218V56.152C230.962 55.024 232.354 54.304 233.962 54.304ZM250.504 54.592H254.032V65.68C254.032 68.872 251.272 71.128 247.36 71.128C245.176 71.128 243.112 70.432 241.888 69.472L243.112 67C243.928 67.72 245.368 68.176 246.808 68.176C249.064 68.176 250.504 67.144 250.504 65.536V64.168C249.52 65.368 248.032 66.088 246.4 66.088C243.28 66.088 240.904 63.64 240.904 60.184C240.904 56.728 243.28 54.304 246.4 54.304C248.08 54.304 249.664 55.096 250.504 56.272V54.592ZM247.504 63.136C249.256 63.136 250.504 61.912 250.504 60.184C250.504 58.456 249.256 57.256 247.504 57.256C245.752 57.256 244.504 58.456 244.504 60.184C244.504 61.912 245.752 63.136 247.504 63.136ZM268.473 67.288C266.481 67.288 264.369 66.616 262.881 65.416L264.393 62.992C265.497 63.784 266.889 64.384 268.545 64.384C269.481 64.384 270.153 64 270.153 63.448C270.153 62.68 269.241 62.44 267.969 62.104C265.425 61.48 263.457 60.784 263.433 58.336C263.409 55.984 265.353 54.304 268.281 54.304C270.057 54.304 271.809 54.928 273.177 55.84L271.761 58.336C270.633 57.64 269.337 57.232 268.281 57.232C267.417 57.232 266.817 57.544 266.817 57.976C266.817 58.648 267.321 58.84 269.001 59.296C271.137 59.848 273.513 60.568 273.513 63.28C273.513 65.728 271.521 67.288 268.473 67.288ZM281.96 67.288C278.264 67.288 275.168 64.312 275.168 60.784C275.168 57.256 278.264 54.304 281.96 54.304C285.632 54.304 288.704 57.256 288.704 60.784C288.704 64.312 285.632 67.288 281.96 67.288ZM281.96 64.336C283.808 64.336 285.368 62.704 285.368 60.784C285.368 58.864 283.808 57.256 281.96 57.256C280.088 57.256 278.528 58.864 278.528 60.784C278.528 62.704 280.088 64.336 281.96 64.336ZM297.171 67.288C293.475 67.288 290.379 64.312 290.379 60.784C290.379 57.256 293.475 54.304 297.171 54.304C300.843 54.304 303.915 57.256 303.915 60.784C303.915 64.312 300.843 67.288 297.171 67.288ZM297.171 64.336C299.019 64.336 300.579 62.704 300.579 60.784C300.579 58.864 299.019 57.256 297.171 57.256C295.299 57.256 293.739 58.864 293.739 60.784C293.739 62.704 295.299 64.336 297.171 64.336ZM313.462 54.304C316.15 54.304 318.07 56.296 318.07 59.104V67H314.686V59.848C314.686 58.312 313.726 57.256 312.334 57.256C310.87 57.256 309.742 58.312 309.742 59.656L309.718 59.584V67H306.214V54.592H309.718V56.152C310.462 55.024 311.854 54.304 313.462 54.304ZM323.02 67.288C321.772 67.288 320.788 66.28 320.788 65.056C320.788 63.928 321.772 62.92 323.02 62.92C324.196 62.92 325.156 63.928 325.156 65.056C325.156 66.28 324.196 67.288 323.02 67.288Z" fill="url(#paint1_linear_28_2)"/>
<defs>
<linearGradient id="paint0_linear_28_2" x1="1.68955e-07" y1="-4.9932e-08" x2="408" y2="93" gradientUnits="userSpaceOnUse">
<stop stop-color="#AD37E0"/>
<stop offset="1" stop-color="#EE2B3B"/>
</linearGradient>
<linearGradient id="paint1_linear_28_2" x1="40" y1="18" x2="47.4633" y2="85.7446" gradientUnits="userSpaceOnUse">
<stop stop-color="#CE5DFF"/>
<stop offset="1" stop-color="#FF3243"/>
</linearGradient>
</defs>
</svg>
