<svg width="408" height="93" viewBox="0 0 408 93" fill="none" xmlns="http://www.w3.org/2000/svg">
<path d="M46.4724 1.5H361.528C386.365 1.5 406.5 21.6348 406.5 46.4724C406.5 71.3099 386.365 91.4447 361.528 91.4447H46.4724C21.6348 91.4447 1.5 71.3099 1.5 46.4724C1.5 21.6348 21.6348 1.5 46.4724 1.5Z" fill="#1F1F1F" stroke="url(#paint0_linear_1_8)" stroke-width="3"/>
<path d="M26.168 55V48.136L27.056 50.488L19.664 38.2H23.792L29.456 47.632H27.08L32.768 38.2H36.584L29.192 50.488L30.056 48.136L30.056 55H26.168ZM42.6611 55.192C41.2851 55.192 40.0611 54.904 38.9891 54.328C37.9331 53.752 37.0931 52.968 36.4691 51.976C35.8611 50.968 35.5571 49.824 35.5571 48.544C35.5571 47.248 35.8611 46.104 36.4691 45.112C37.0931 44.104 37.9331 43.32 38.9891 42.76C40.0611 42.184 41.2851 41.896 42.6611 41.896C44.0211 41.896 45.2371 42.184 46.3091 42.76C47.3811 43.32 48.2211 44.096 48.8291 45.088C49.4371 46.08 49.7411 47.232 49.7411 48.544C49.7411 49.824 49.4371 50.968 48.8291 51.976C48.2211 52.968 47.3811 53.752 46.3091 54.328C45.2371 54.904 44.0211 55.192 42.6611 55.192ZM42.6611 52.12C43.2851 52.12 43.8451 51.976 44.3411 51.688C44.8371 51.4 45.2291 50.992 45.5171 50.464C45.8051 49.92 45.9491 49.28 45.9491 48.544C45.9491 47.792 45.8051 47.152 45.5171 46.624C45.2291 46.096 44.8371 45.688 44.3411 45.4C43.8451 45.112 43.2851 44.968 42.6611 44.968C42.0371 44.968 41.4771 45.112 40.9811 45.4C40.4851 45.688 40.0851 46.096 39.7811 46.624C39.4931 47.152 39.3491 47.792 39.3491 48.544C39.3491 49.28 39.4931 49.92 39.7811 50.464C40.0851 50.992 40.4851 51.4 40.9811 51.688C41.4771 51.976 42.0371 52.12 42.6611 52.12ZM57.6916 55.192C56.6196 55.192 55.6596 54.984 54.8116 54.568C53.9796 54.152 53.3316 53.52 52.8676 52.672C52.4036 51.808 52.1716 50.712 52.1716 49.384V42.088H55.9156V48.832C55.9156 49.904 56.1396 50.696 56.5876 51.208C57.0516 51.704 57.6996 51.952 58.5316 51.952C59.1076 51.952 59.6196 51.832 60.0676 51.592C60.5156 51.336 60.8676 50.952 61.1236 50.44C61.3796 49.912 61.5076 49.256 61.5076 48.472V42.088H65.2516V55H61.6996V51.448L62.3476 52.48C61.9156 53.376 61.2756 54.056 60.4276 54.52C59.5956 54.968 58.6836 55.192 57.6916 55.192ZM68.7202 55V42.088H72.2962V45.736L71.7922 44.68C72.1762 43.768 72.7922 43.08 73.6402 42.616C74.4882 42.136 75.5202 41.896 76.7362 41.896V45.352C76.5762 45.336 76.4322 45.328 76.3042 45.328C76.1762 45.312 76.0402 45.304 75.8962 45.304C74.8722 45.304 74.0402 45.6 73.4002 46.192C72.7762 46.768 72.4642 47.672 72.4642 48.904V55H68.7202ZM91.637 55.288C90.293 55.288 89.005 55.112 87.773 54.76C86.541 54.392 85.549 53.92 84.797 53.344L86.117 50.416C86.837 50.928 87.685 51.352 88.661 51.688C89.653 52.008 90.653 52.168 91.661 52.168C92.429 52.168 93.045 52.096 93.509 51.952C93.989 51.792 94.341 51.576 94.565 51.304C94.789 51.032 94.901 50.72 94.901 50.368C94.901 49.92 94.725 49.568 94.373 49.312C94.021 49.04 93.557 48.824 92.981 48.664C92.405 48.488 91.765 48.328 91.061 48.184C90.373 48.024 89.677 47.832 88.973 47.608C88.285 47.384 87.653 47.096 87.077 46.744C86.501 46.392 86.029 45.928 85.661 45.352C85.309 44.776 85.133 44.04 85.133 43.144C85.133 42.184 85.389 41.312 85.901 40.528C86.429 39.728 87.213 39.096 88.253 38.632C89.309 38.152 90.629 37.912 92.213 37.912C93.269 37.912 94.309 38.04 95.333 38.296C96.357 38.536 97.261 38.904 98.045 39.4L96.845 42.352C96.061 41.904 95.277 41.576 94.493 41.368C93.709 41.144 92.941 41.032 92.189 41.032C91.437 41.032 90.821 41.12 90.341 41.296C89.861 41.472 89.517 41.704 89.309 41.992C89.101 42.264 88.997 42.584 88.997 42.952C88.997 43.384 89.173 43.736 89.525 44.008C89.877 44.264 90.341 44.472 90.917 44.632C91.493 44.792 92.125 44.952 92.813 45.112C93.517 45.272 94.213 45.456 94.901 45.664C95.605 45.872 96.245 46.152 96.821 46.504C97.397 46.856 97.861 47.32 98.213 47.896C98.581 48.472 98.765 49.2 98.765 50.08C98.765 51.024 98.501 51.888 97.973 52.672C97.445 53.456 96.653 54.088 95.597 54.568C94.557 55.048 93.237 55.288 91.637 55.288ZM117.694 41.896C118.718 41.896 119.622 42.104 120.406 42.52C121.206 42.92 121.83 43.544 122.278 44.392C122.742 45.224 122.974 46.296 122.974 47.608V55H119.23V48.184C119.23 47.144 119.014 46.376 118.582 45.88C118.15 45.384 117.542 45.136 116.758 45.136C116.214 45.136 115.726 45.264 115.294 45.52C114.862 45.76 114.526 46.128 114.286 46.624C114.046 47.12 113.926 47.752 113.926 48.52V55H110.182V48.184C110.182 47.144 109.966 46.376 109.534 45.88C109.118 45.384 108.518 45.136 107.734 45.136C107.19 45.136 106.702 45.264 106.27 45.52C105.838 45.76 105.502 46.128 105.262 46.624C105.022 47.12 104.902 47.752 104.902 48.52V55H101.158V42.088H104.734V45.616L104.062 44.584C104.51 43.704 105.142 43.04 105.958 42.592C106.79 42.128 107.734 41.896 108.79 41.896C109.974 41.896 111.006 42.2 111.886 42.808C112.782 43.4 113.374 44.312 113.662 45.544L112.342 45.184C112.774 44.176 113.462 43.376 114.406 42.784C115.366 42.192 116.462 41.896 117.694 41.896ZM126.33 55V42.088H130.074V55H126.33ZM128.202 40.288C127.514 40.288 126.954 40.088 126.522 39.688C126.09 39.288 125.874 38.792 125.874 38.2C125.874 37.608 126.09 37.112 126.522 36.712C126.954 36.312 127.514 36.112 128.202 36.112C128.89 36.112 129.45 36.304 129.882 36.688C130.314 37.056 130.53 37.536 130.53 38.128C130.53 38.752 130.314 39.272 129.882 39.688C129.466 40.088 128.906 40.288 128.202 40.288ZM133.548 55V37.192H137.292V55H133.548ZM147.175 55.192C145.703 55.192 144.407 54.904 143.287 54.328C142.183 53.752 141.327 52.968 140.719 51.976C140.111 50.968 139.807 49.824 139.807 48.544C139.807 47.248 140.103 46.104 140.695 45.112C141.303 44.104 142.127 43.32 143.167 42.76C144.207 42.184 145.383 41.896 146.695 41.896C147.959 41.896 149.095 42.168 150.103 42.712C151.127 43.24 151.935 44.008 152.527 45.016C153.119 46.008 153.415 47.2 153.415 48.592C153.415 48.736 153.407 48.904 153.391 49.096C153.375 49.272 153.359 49.44 153.343 49.6H142.855V47.416H151.375L149.935 48.064C149.935 47.392 149.799 46.808 149.527 46.312C149.255 45.816 148.879 45.432 148.399 45.16C147.919 44.872 147.359 44.728 146.719 44.728C146.079 44.728 145.511 44.872 145.015 45.16C144.535 45.432 144.159 45.824 143.887 46.336C143.615 46.832 143.479 47.424 143.479 48.112V48.688C143.479 49.392 143.631 50.016 143.935 50.56C144.255 51.088 144.695 51.496 145.255 51.784C145.831 52.056 146.503 52.192 147.271 52.192C147.959 52.192 148.559 52.088 149.071 51.88C149.599 51.672 150.079 51.36 150.511 50.944L152.503 53.104C151.911 53.776 151.167 54.296 150.271 54.664C149.375 55.016 148.343 55.192 147.175 55.192ZM155.26 58.696L156.844 52.936L157.372 55.096C156.684 55.096 156.116 54.896 155.668 54.496C155.236 54.096 155.02 53.544 155.02 52.84C155.02 52.136 155.244 51.576 155.692 51.16C156.14 50.744 156.692 50.536 157.348 50.536C158.02 50.536 158.572 50.752 159.004 51.184C159.436 51.6 159.652 52.152 159.652 52.84C159.652 53.048 159.636 53.256 159.604 53.464C159.572 53.656 159.508 53.896 159.412 54.184C159.332 54.456 159.196 54.808 159.004 55.24L157.636 58.696H155.26ZM177.41 55.288C176.082 55.288 174.85 55.072 173.714 54.64C172.594 54.208 171.618 53.6 170.786 52.816C169.97 52.032 169.33 51.112 168.866 50.056C168.418 49 168.194 47.848 168.194 46.6C168.194 45.352 168.418 44.2 168.866 43.144C169.33 42.088 169.978 41.168 170.81 40.384C171.642 39.6 172.618 38.992 173.738 38.56C174.858 38.128 176.074 37.912 177.386 37.912C178.714 37.912 179.93 38.128 181.034 38.56C182.154 38.992 183.122 39.6 183.938 40.384C184.77 41.168 185.418 42.088 185.882 43.144C186.346 44.184 186.578 45.336 186.578 46.6C186.578 47.848 186.346 49.008 185.882 50.08C185.418 51.136 184.77 52.056 183.938 52.84C183.122 53.608 182.154 54.208 181.034 54.64C179.93 55.072 178.722 55.288 177.41 55.288ZM177.386 51.976C178.138 51.976 178.826 51.848 179.45 51.592C180.09 51.336 180.65 50.968 181.13 50.488C181.61 50.008 181.978 49.44 182.234 48.784C182.506 48.128 182.642 47.4 182.642 46.6C182.642 45.8 182.506 45.072 182.234 44.416C181.978 43.76 181.61 43.192 181.13 42.712C180.666 42.232 180.114 41.864 179.474 41.608C178.834 41.352 178.138 41.224 177.386 41.224C176.634 41.224 175.938 41.352 175.298 41.608C174.674 41.864 174.122 42.232 173.642 42.712C173.162 43.192 172.786 43.76 172.514 44.416C172.258 45.072 172.13 45.8 172.13 46.6C172.13 47.384 172.258 48.112 172.514 48.784C172.786 49.44 173.154 50.008 173.618 50.488C174.098 50.968 174.658 51.336 175.298 51.592C175.938 51.848 176.634 51.976 177.386 51.976ZM194.684 55.192C193.612 55.192 192.652 54.984 191.804 54.568C190.972 54.152 190.324 53.52 189.86 52.672C189.396 51.808 189.164 50.712 189.164 49.384V42.088H192.908V48.832C192.908 49.904 193.132 50.696 193.58 51.208C194.044 51.704 194.692 51.952 195.524 51.952C196.1 51.952 196.612 51.832 197.06 51.592C197.508 51.336 197.86 50.952 198.116 50.44C198.372 49.912 198.5 49.256 198.5 48.472V42.088H202.244V55H198.692V51.448L199.34 52.48C198.908 53.376 198.268 54.056 197.42 54.52C196.588 54.968 195.676 55.192 194.684 55.192ZM205.712 55V42.088H209.288V45.736L208.784 44.68C209.168 43.768 209.784 43.08 210.632 42.616C211.48 42.136 212.512 41.896 213.728 41.896V45.352C213.568 45.336 213.424 45.328 213.296 45.328C213.168 45.312 213.032 45.304 212.888 45.304C211.864 45.304 211.032 45.6 210.392 46.192C209.768 46.768 209.456 47.672 209.456 48.904V55H205.712ZM231.149 55.288C229.853 55.288 228.645 55.08 227.525 54.664C226.421 54.232 225.461 53.624 224.645 52.84C223.829 52.056 223.189 51.136 222.725 50.08C222.277 49.024 222.053 47.864 222.053 46.6C222.053 45.336 222.277 44.176 222.725 43.12C223.189 42.064 223.829 41.144 224.645 40.36C225.477 39.576 226.445 38.976 227.549 38.56C228.653 38.128 229.861 37.912 231.173 37.912C232.629 37.912 233.941 38.168 235.109 38.68C236.293 39.176 237.285 39.912 238.085 40.888L235.589 43.192C235.013 42.536 234.373 42.048 233.669 41.728C232.965 41.392 232.197 41.224 231.365 41.224C230.581 41.224 229.861 41.352 229.205 41.608C228.549 41.864 227.981 42.232 227.501 42.712C227.021 43.192 226.645 43.76 226.373 44.416C226.117 45.072 225.989 45.8 225.989 46.6C225.989 47.4 226.117 48.128 226.373 48.784C226.645 49.44 227.021 50.008 227.501 50.488C227.981 50.968 228.549 51.336 229.205 51.592C229.861 51.848 230.581 51.976 231.365 51.976C232.197 51.976 232.965 51.816 233.669 51.496C234.373 51.16 235.013 50.656 235.589 49.984L238.085 52.288C237.285 53.264 236.293 54.008 235.109 54.52C233.941 55.032 232.621 55.288 231.149 55.288ZM246.145 55.192C244.769 55.192 243.545 54.904 242.473 54.328C241.417 53.752 240.577 52.968 239.953 51.976C239.345 50.968 239.041 49.824 239.041 48.544C239.041 47.248 239.345 46.104 239.953 45.112C240.577 44.104 241.417 43.32 242.473 42.76C243.545 42.184 244.769 41.896 246.145 41.896C247.505 41.896 248.721 42.184 249.793 42.76C250.865 43.32 251.705 44.096 252.313 45.088C252.921 46.08 253.225 47.232 253.225 48.544C253.225 49.824 252.921 50.968 252.313 51.976C251.705 52.968 250.865 53.752 249.793 54.328C248.721 54.904 247.505 55.192 246.145 55.192ZM246.145 52.12C246.769 52.12 247.329 51.976 247.825 51.688C248.321 51.4 248.713 50.992 249.001 50.464C249.289 49.92 249.433 49.28 249.433 48.544C249.433 47.792 249.289 47.152 249.001 46.624C248.713 46.096 248.321 45.688 247.825 45.4C247.329 45.112 246.769 44.968 246.145 44.968C245.521 44.968 244.961 45.112 244.465 45.4C243.969 45.688 243.569 46.096 243.265 46.624C242.977 47.152 242.833 47.792 242.833 48.544C242.833 49.28 242.977 49.92 243.265 50.464C243.569 50.992 243.969 51.4 244.465 51.688C244.961 51.976 245.521 52.12 246.145 52.12ZM272.264 41.896C273.288 41.896 274.192 42.104 274.976 42.52C275.776 42.92 276.4 43.544 276.848 44.392C277.312 45.224 277.544 46.296 277.544 47.608V55H273.8V48.184C273.8 47.144 273.584 46.376 273.152 45.88C272.72 45.384 272.112 45.136 271.328 45.136C270.784 45.136 270.296 45.264 269.864 45.52C269.432 45.76 269.096 46.128 268.856 46.624C268.616 47.12 268.496 47.752 268.496 48.52V55H264.752V48.184C264.752 47.144 264.536 46.376 264.104 45.88C263.688 45.384 263.088 45.136 262.304 45.136C261.76 45.136 261.272 45.264 260.84 45.52C260.408 45.76 260.072 46.128 259.832 46.624C259.592 47.12 259.472 47.752 259.472 48.52V55H255.728V42.088L259.304 42.088V45.616L258.632 44.584C259.08 43.704 259.712 43.04 260.528 42.592C261.36 42.128 262.304 41.896 263.36 41.896C264.544 41.896 265.576 42.2 266.456 42.808C267.352 43.4 267.944 44.312 268.232 45.544L266.912 45.184C267.344 44.176 268.032 43.376 268.976 42.784C269.936 42.192 271.032 41.896 272.264 41.896ZM297.436 41.896C298.46 41.896 299.364 42.104 300.148 42.52C300.948 42.92 301.572 43.544 302.02 44.392C302.484 45.224 302.716 46.296 302.716 47.608V55H298.972V48.184C298.972 47.144 298.756 46.376 298.324 45.88C297.892 45.384 297.284 45.136 296.5 45.136C295.956 45.136 295.468 45.264 295.036 45.52C294.604 45.76 294.268 46.128 294.028 46.624C293.788 47.12 293.668 47.752 293.668 48.52V55H289.924V48.184C289.924 47.144 289.708 46.376 289.276 45.88C288.86 45.384 288.26 45.136 287.476 45.136C286.932 45.136 286.444 45.264 286.012 45.52C285.58 45.76 285.244 46.128 285.004 46.624C284.764 47.12 284.644 47.752 284.644 48.52V55H280.9V42.088H284.476V45.616L283.804 44.584C284.252 43.704 284.884 43.04 285.7 42.592C286.532 42.128 287.476 41.896 288.532 41.896C289.716 41.896 290.748 42.2 291.628 42.808C292.524 43.4 293.116 44.312 293.404 45.544L292.084 45.184C292.516 44.176 293.204 43.376 294.148 42.784C295.108 42.192 296.204 41.896 297.436 41.896ZM306.072 55V42.088H309.816V55H306.072ZM307.944 40.288C307.256 40.288 306.696 40.088 306.264 39.688C305.832 39.288 305.616 38.792 305.616 38.2C305.616 37.608 305.832 37.112 306.264 36.712C306.696 36.312 307.256 36.112 307.944 36.112C308.632 36.112 309.192 36.304 309.624 36.688C310.056 37.056 310.272 37.536 310.272 38.128C310.272 38.752 310.056 39.272 309.624 39.688C309.208 40.088 308.648 40.288 307.944 40.288ZM318.571 55.192C317.051 55.192 315.867 54.808 315.019 54.04C314.171 53.256 313.747 52.096 313.747 50.56V39.232H317.491V50.512C317.491 51.056 317.635 51.48 317.923 51.784C318.211 52.072 318.603 52.216 319.099 52.216C319.691 52.216 320.195 52.056 320.611 51.736L321.619 54.376C321.235 54.648 320.771 54.856 320.227 55C319.699 55.128 319.147 55.192 318.571 55.192ZM311.755 45.256V42.376L320.707 42.376V45.256L311.755 45.256ZM340.256 41.896C341.28 41.896 342.184 42.104 342.968 42.52C343.768 42.92 344.392 43.544 344.84 44.392C345.304 45.224 345.536 46.296 345.536 47.608V55H341.792V48.184C341.792 47.144 341.576 46.376 341.144 45.88C340.712 45.384 340.104 45.136 339.32 45.136C338.776 45.136 338.288 45.264 337.856 45.52C337.424 45.76 337.088 46.128 336.848 46.624C336.608 47.12 336.488 47.752 336.488 48.52V55H332.744V48.184C332.744 47.144 332.528 46.376 332.096 45.88C331.68 45.384 331.08 45.136 330.296 45.136C329.752 45.136 329.264 45.264 328.832 45.52C328.4 45.76 328.064 46.128 327.824 46.624C327.584 47.12 327.464 47.752 327.464 48.52V55H323.72V42.088H327.296V45.616L326.624 44.584C327.072 43.704 327.704 43.04 328.52 42.592C329.352 42.128 330.296 41.896 331.352 41.896C332.536 41.896 333.568 42.2 334.448 42.808C335.344 43.4 335.936 44.312 336.224 45.544L334.904 45.184C335.336 44.176 336.024 43.376 336.968 42.784C337.928 42.192 339.024 41.896 340.256 41.896ZM355.394 55.192C353.922 55.192 352.626 54.904 351.506 54.328C350.402 53.752 349.546 52.968 348.938 51.976C348.33 50.968 348.026 49.824 348.026 48.544C348.026 47.248 348.322 46.104 348.914 45.112C349.522 44.104 350.346 43.32 351.386 42.76C352.426 42.184 353.602 41.896 354.914 41.896C356.178 41.896 357.314 42.168 358.322 42.712C359.346 43.24 360.154 44.008 360.746 45.016C361.338 46.008 361.634 47.2 361.634 48.592C361.634 48.736 361.626 48.904 361.61 49.096C361.594 49.272 361.578 49.44 361.562 49.6H351.074V47.416H359.594L358.154 48.064C358.154 47.392 358.018 46.808 357.746 46.312C357.474 45.816 357.098 45.432 356.618 45.16C356.138 44.872 355.578 44.728 354.938 44.728C354.298 44.728 353.73 44.872 353.234 45.16C352.754 45.432 352.378 45.824 352.106 46.336C351.834 46.832 351.698 47.424 351.698 48.112V48.688C351.698 49.392 351.85 50.016 352.154 50.56C352.474 51.088 352.914 51.496 353.474 51.784C354.05 52.056 354.722 52.192 355.49 52.192C356.178 52.192 356.778 52.088 357.29 51.88C357.818 51.672 358.298 51.36 358.73 50.944L360.722 53.104C360.13 53.776 359.386 54.296 358.49 54.664C357.594 55.016 356.562 55.192 355.394 55.192ZM371.974 41.896C372.998 41.896 373.91 42.104 374.71 42.52C375.526 42.92 376.166 43.544 376.63 44.392C377.094 45.224 377.326 46.296 377.326 47.608V55H373.582V48.184C373.582 47.144 373.35 46.376 372.886 45.88C372.438 45.384 371.798 45.136 370.966 45.136C370.374 45.136 369.838 45.264 369.358 45.52C368.894 45.76 368.526 46.136 368.254 46.648C367.998 47.16 367.87 47.816 367.87 48.616V55H364.126V42.088H367.702V45.664L367.03 44.584C367.494 43.72 368.158 43.056 369.022 42.592C369.886 42.128 370.87 41.896 371.974 41.896ZM386 55.192C384.48 55.192 383.296 54.808 382.448 54.04C381.6 53.256 381.176 52.096 381.176 50.56V39.232H384.92V50.512C384.92 51.056 385.064 51.48 385.352 51.784C385.64 52.072 386.032 52.216 386.528 52.216C387.12 52.216 387.624 52.056 388.04 51.736L389.048 54.376C388.664 54.648 388.2 54.856 387.656 55C387.128 55.128 386.576 55.192 386 55.192ZM379.184 45.256V42.376H388.136V45.256H379.184ZM392.8 55.192C392.16 55.192 391.608 54.976 391.144 54.544C390.696 54.096 390.472 53.528 390.472 52.84C390.472 52.152 390.696 51.6 391.144 51.184C391.608 50.752 392.16 50.536 392.8 50.536C393.456 50.536 394.008 50.752 394.456 51.184C394.904 51.6 395.128 52.152 395.128 52.84C395.128 53.528 394.904 54.096 394.456 54.544C394.008 54.976 393.456 55.192 392.8 55.192Z" fill="url(#paint1_linear_1_8)"/>
<defs>
<linearGradient id="paint0_linear_1_8" x1="1.68955e-07" y1="-0.0136719" x2="408" y2="92.9863" gradientUnits="userSpaceOnUse">
<stop stop-color="#AD37E0"/>
<stop offset="1" stop-color="#EE2B3B"/>
</linearGradient>
<linearGradient id="paint1_linear_1_8" x1="-25.1698" y1="28.2609" x2="229.43" y2="266.908" gradientUnits="userSpaceOnUse">
<stop stop-color="#AD37E0"/>
<stop offset="1" stop-color="#EE2B3B"/>
</linearGradient>
</defs>
</svg>
