<svg width="408" height="68" viewBox="0 0 408 68" fill="none" xmlns="http://www.w3.org/2000/svg">
<path d="M33.6592 1.5H374.341C392.102 1.5 406.5 15.8982 406.5 33.6592C406.5 51.4202 392.102 65.8183 374.341 65.8183H33.6592C15.8982 65.8183 1.5 51.4202 1.5 33.6592C1.5 15.8982 15.8982 1.5 33.6592 1.5Z" fill="#1F1F1F" stroke="url(#paint0_linear_1_8)" stroke-width="3"/>
<path d="M57.4994 41.6256L57.4994 35.9056L58.2394 37.8656L52.0794 27.6256H55.5194L60.2394 35.4856H58.2594L62.9994 27.6256L66.1794 27.6256L60.0194 37.8656L60.7394 35.9056L60.7394 41.6256H57.4994ZM71.2436 41.7856C70.0969 41.7856 69.0769 41.5456 68.1836 41.0656C67.3036 40.5856 66.6036 39.9323 66.0836 39.1056C65.5769 38.2656 65.3236 37.3123 65.3236 36.2456C65.3236 35.1656 65.5769 34.2123 66.0836 33.3856C66.6036 32.5456 67.3036 31.8923 68.1836 31.4256C69.0769 30.9456 70.0969 30.7056 71.2436 30.7056C72.3769 30.7056 73.3903 30.9456 74.2836 31.4256C75.1769 31.8923 75.8769 32.539 76.3836 33.3656C76.8903 34.1923 77.1436 35.1523 77.1436 36.2456C77.1436 37.3123 76.8903 38.2656 76.3836 39.1056C75.8769 39.9323 75.1769 40.5856 74.2836 41.0656C73.3903 41.5456 72.3769 41.7856 71.2436 41.7856ZM71.2436 39.2256C71.7636 39.2256 72.2303 39.1056 72.6436 38.8656C73.0569 38.6256 73.3836 38.2856 73.6236 37.8456C73.8636 37.3923 73.9836 36.859 73.9836 36.2456C73.9836 35.619 73.8636 35.0856 73.6236 34.6456C73.3836 34.2056 73.0569 33.8656 72.6436 33.6256C72.2303 33.3856 71.7636 33.2656 71.2436 33.2656C70.7236 33.2656 70.2569 33.3856 69.8436 33.6256C69.4303 33.8656 69.0969 34.2056 68.8436 34.6456C68.6036 35.0856 68.4836 35.619 68.4836 36.2456C68.4836 36.859 68.6036 37.3923 68.8436 37.8456C69.0969 38.2856 69.4303 38.6256 69.8436 38.8656C70.2569 39.1056 70.7236 39.2256 71.2436 39.2256ZM83.7691 41.7856C82.8757 41.7856 82.0757 41.6123 81.3691 41.2656C80.6757 40.919 80.1357 40.3923 79.7491 39.6856C79.3624 38.9656 79.1691 38.0523 79.1691 36.9456V30.8656H82.2891V36.4856C82.2891 37.379 82.4757 38.039 82.8491 38.4656C83.2357 38.879 83.7757 39.0856 84.4691 39.0856C84.9491 39.0856 85.3757 38.9856 85.7491 38.7856C86.1224 38.5723 86.4157 38.2523 86.6291 37.8256C86.8424 37.3856 86.9491 36.839 86.9491 36.1856V30.8656H90.0691V41.6256H87.1091V38.6656L87.6491 39.5256C87.2891 40.2723 86.7557 40.839 86.0491 41.2256C85.3557 41.599 84.5957 41.7856 83.7691 41.7856ZM92.9595 41.6256V30.8656H95.9395V33.9056L95.5195 33.0256C95.8395 32.2656 96.3529 31.6923 97.0595 31.3056C97.7662 30.9056 98.6262 30.7056 99.6395 30.7056V33.5856C99.5062 33.5723 99.3862 33.5656 99.2795 33.5656C99.1729 33.5523 99.0595 33.5456 98.9395 33.5456C98.0862 33.5456 97.3929 33.7923 96.8595 34.2856C96.3395 34.7656 96.0795 35.519 96.0795 36.5456V41.6256H92.9595ZM112.057 41.8656C110.937 41.8656 109.864 41.719 108.837 41.4256C107.81 41.119 106.984 40.7256 106.357 40.2456L107.457 37.8056C108.057 38.2323 108.764 38.5856 109.577 38.8656C110.404 39.1323 111.237 39.2656 112.077 39.2656C112.717 39.2656 113.23 39.2056 113.617 39.0856C114.017 38.9523 114.31 38.7723 114.497 38.5456C114.684 38.319 114.777 38.059 114.777 37.7656C114.777 37.3923 114.63 37.099 114.337 36.8856C114.044 36.659 113.657 36.479 113.177 36.3456C112.697 36.199 112.164 36.0656 111.577 35.9456C111.004 35.8123 110.424 35.6523 109.837 35.4656C109.264 35.279 108.737 35.039 108.257 34.7456C107.777 34.4523 107.384 34.0656 107.077 33.5856C106.784 33.1056 106.637 32.4923 106.637 31.7456C106.637 30.9456 106.85 30.219 107.277 29.5656C107.717 28.899 108.37 28.3723 109.237 27.9856C110.117 27.5856 111.217 27.3856 112.537 27.3856C113.417 27.3856 114.284 27.4923 115.137 27.7056C115.99 27.9056 116.744 28.2123 117.397 28.6256L116.397 31.0856C115.744 30.7123 115.09 30.439 114.437 30.2656C113.784 30.079 113.144 29.9856 112.517 29.9856C111.89 29.9856 111.377 30.059 110.977 30.2056C110.577 30.3523 110.29 30.5456 110.117 30.7856C109.944 31.0123 109.857 31.279 109.857 31.5856C109.857 31.9456 110.004 32.239 110.297 32.4656C110.59 32.679 110.977 32.8523 111.457 32.9856C111.937 33.119 112.464 33.2523 113.037 33.3856C113.624 33.519 114.204 33.6723 114.777 33.8456C115.364 34.019 115.897 34.2523 116.377 34.5456C116.857 34.839 117.244 35.2256 117.537 35.7056C117.844 36.1856 117.997 36.7923 117.997 37.5256C117.997 38.3123 117.777 39.0323 117.337 39.6856C116.897 40.339 116.237 40.8656 115.357 41.2656C114.49 41.6656 113.39 41.8656 112.057 41.8656ZM133.771 30.7056C134.624 30.7056 135.377 30.879 136.031 31.2256C136.697 31.559 137.217 32.079 137.591 32.7856C137.977 33.479 138.171 34.3723 138.171 35.4656V41.6256H135.051V35.9456C135.051 35.079 134.871 34.439 134.511 34.0256C134.151 33.6123 133.644 33.4056 132.991 33.4056C132.537 33.4056 132.131 33.5123 131.771 33.7256C131.411 33.9256 131.131 34.2323 130.931 34.6456C130.731 35.059 130.631 35.5856 130.631 36.2256V41.6256H127.511V35.9456C127.511 35.079 127.331 34.439 126.971 34.0256C126.624 33.6123 126.124 33.4056 125.471 33.4056C125.017 33.4056 124.611 33.5123 124.251 33.7256C123.891 33.9256 123.611 34.2323 123.411 34.6456C123.211 35.059 123.111 35.5856 123.111 36.2256V41.6256H119.991V30.8656L122.971 30.8656V33.8056L122.411 32.9456C122.784 32.2123 123.311 31.659 123.991 31.2856C124.684 30.899 125.471 30.7056 126.351 30.7056C127.337 30.7056 128.197 30.959 128.931 31.4656C129.677 31.959 130.171 32.719 130.411 33.7456L129.311 33.4456C129.671 32.6056 130.244 31.939 131.031 31.4456C131.831 30.9523 132.744 30.7056 133.771 30.7056ZM140.967 41.6256V30.8656H144.087V41.6256H140.967ZM142.527 29.3656C141.954 29.3656 141.487 29.199 141.127 28.8656C140.767 28.5323 140.587 28.119 140.587 27.6256C140.587 27.1323 140.767 26.719 141.127 26.3856C141.487 26.0523 141.954 25.8856 142.527 25.8856C143.101 25.8856 143.567 26.0456 143.927 26.3656C144.287 26.6723 144.467 27.0723 144.467 27.5656C144.467 28.0856 144.287 28.519 143.927 28.8656C143.581 29.199 143.114 29.3656 142.527 29.3656ZM146.983 41.6256V26.7856H150.103V41.6256H146.983ZM158.339 41.7856C157.112 41.7856 156.032 41.5456 155.099 41.0656C154.179 40.5856 153.465 39.9323 152.959 39.1056C152.452 38.2656 152.199 37.3123 152.199 36.2456C152.199 35.1656 152.445 34.2123 152.939 33.3856C153.445 32.5456 154.132 31.8923 154.999 31.4256C155.865 30.9456 156.845 30.7056 157.939 30.7056C158.992 30.7056 159.939 30.9323 160.779 31.3856C161.632 31.8256 162.305 32.4656 162.799 33.3056C163.292 34.1323 163.539 35.1256 163.539 36.2856C163.539 36.4056 163.532 36.5456 163.519 36.7056C163.505 36.8523 163.492 36.9923 163.479 37.1256H154.739V35.3056H161.839L160.639 35.8456C160.639 35.2856 160.525 34.799 160.299 34.3856C160.072 33.9723 159.759 33.6523 159.359 33.4256C158.959 33.1856 158.492 33.0656 157.959 33.0656C157.425 33.0656 156.952 33.1856 156.539 33.4256C156.139 33.6523 155.825 33.979 155.599 34.4056C155.372 34.819 155.259 35.3123 155.259 35.8856V36.3656C155.259 36.9523 155.385 37.4723 155.639 37.9256C155.905 38.3656 156.272 38.7056 156.739 38.9456C157.219 39.1723 157.779 39.2856 158.419 39.2856C158.992 39.2856 159.492 39.199 159.919 39.0256C160.359 38.8523 160.759 38.5923 161.119 38.2456L162.779 40.0456C162.285 40.6056 161.665 41.039 160.919 41.3456C160.172 41.639 159.312 41.7856 158.339 41.7856ZM165.076 44.7056L166.396 39.9056L166.836 41.7056C166.262 41.7056 165.789 41.539 165.416 41.2056C165.056 40.8723 164.876 40.4123 164.876 39.8256C164.876 39.239 165.062 38.7723 165.436 38.4256C165.809 38.079 166.269 37.9056 166.816 37.9056C167.376 37.9056 167.836 38.0856 168.196 38.4456C168.556 38.7923 168.736 39.2523 168.736 39.8256C168.736 39.999 168.722 40.1723 168.696 40.3456C168.669 40.5056 168.616 40.7056 168.536 40.9456C168.469 41.1723 168.356 41.4656 168.196 41.8256L167.056 44.7056H165.076ZM183.534 41.8656C182.428 41.8656 181.401 41.6856 180.454 41.3256C179.521 40.9656 178.708 40.459 178.014 39.8056C177.334 39.1523 176.801 38.3856 176.414 37.5056C176.041 36.6256 175.854 35.6656 175.854 34.6256C175.854 33.5856 176.041 32.6256 176.414 31.7456C176.801 30.8656 177.341 30.099 178.034 29.4456C178.728 28.7923 179.541 28.2856 180.474 27.9256C181.408 27.5656 182.421 27.3856 183.514 27.3856C184.621 27.3856 185.634 27.5656 186.554 27.9256C187.488 28.2856 188.294 28.7923 188.974 29.4456C189.668 30.099 190.208 30.8656 190.594 31.7456C190.981 32.6123 191.174 33.5723 191.174 34.6256C191.174 35.6656 190.981 36.6323 190.594 37.5256C190.208 38.4056 189.668 39.1723 188.974 39.8256C188.294 40.4656 187.488 40.9656 186.554 41.3256C185.634 41.6856 184.628 41.8656 183.534 41.8656ZM183.514 39.1056C184.141 39.1056 184.714 38.999 185.234 38.7856C185.768 38.5723 186.234 38.2656 186.634 37.8656C187.034 37.4656 187.341 36.9923 187.554 36.4456C187.781 35.899 187.894 35.2923 187.894 34.6256C187.894 33.959 187.781 33.3523 187.554 32.8056C187.341 32.259 187.034 31.7856 186.634 31.3856C186.248 30.9856 185.788 30.679 185.254 30.4656C184.721 30.2523 184.141 30.1456 183.514 30.1456C182.888 30.1456 182.308 30.2523 181.774 30.4656C181.254 30.679 180.794 30.9856 180.394 31.3856C179.994 31.7856 179.681 32.259 179.454 32.8056C179.241 33.3523 179.134 33.959 179.134 34.6256C179.134 35.279 179.241 35.8856 179.454 36.4456C179.681 36.9923 179.988 37.4656 180.374 37.8656C180.774 38.2656 181.241 38.5723 181.774 38.7856C182.308 38.999 182.888 39.1056 183.514 39.1056ZM197.929 41.7856C197.036 41.7856 196.236 41.6123 195.529 41.2656C194.836 40.919 194.296 40.3923 193.909 39.6856C193.523 38.9656 193.329 38.0523 193.329 36.9456V30.8656H196.449V36.4856C196.449 37.379 196.636 38.039 197.009 38.4656C197.396 38.879 197.936 39.0856 198.629 39.0856C199.109 39.0856 199.536 38.9856 199.909 38.7856C200.283 38.5723 200.576 38.2523 200.789 37.8256C201.003 37.3856 201.109 36.839 201.109 36.1856V30.8656H204.229V41.6256H201.269V38.6656L201.809 39.5256C201.449 40.2723 200.916 40.839 200.209 41.2256C199.516 41.599 198.756 41.7856 197.929 41.7856ZM207.12 41.6256V30.8656H210.1V33.9056L209.68 33.0256C210 32.2656 210.513 31.6923 211.22 31.3056C211.926 30.9056 212.786 30.7056 213.8 30.7056V33.5856C213.666 33.5723 213.546 33.5656 213.44 33.5656C213.333 33.5523 213.22 33.5456 213.1 33.5456C212.246 33.5456 211.553 33.7923 211.02 34.2856C210.5 34.7656 210.24 35.519 210.24 36.5456V41.6256H207.12ZM228.317 41.8656C227.237 41.8656 226.23 41.6923 225.297 41.3456C224.377 40.9856 223.577 40.479 222.897 39.8256C222.217 39.1723 221.684 38.4056 221.297 37.5256C220.924 36.6456 220.737 35.679 220.737 34.6256C220.737 33.5723 220.924 32.6056 221.297 31.7256C221.684 30.8456 222.217 30.079 222.897 29.4256C223.59 28.7723 224.397 28.2723 225.317 27.9256C226.237 27.5656 227.244 27.3856 228.337 27.3856C229.55 27.3856 230.644 27.599 231.617 28.0256C232.604 28.439 233.43 29.0523 234.097 29.8656L232.017 31.7856C231.537 31.239 231.004 30.8323 230.417 30.5656C229.83 30.2856 229.19 30.1456 228.497 30.1456C227.844 30.1456 227.244 30.2523 226.697 30.4656C226.15 30.679 225.677 30.9856 225.277 31.3856C224.877 31.7856 224.564 32.259 224.337 32.8056C224.124 33.3523 224.017 33.959 224.017 34.6256C224.017 35.2923 224.124 35.899 224.337 36.4456C224.564 36.9923 224.877 37.4656 225.277 37.8656C225.677 38.2656 226.15 38.5723 226.697 38.7856C227.244 38.999 227.844 39.1056 228.497 39.1056C229.19 39.1056 229.83 38.9723 230.417 38.7056C231.004 38.4256 231.537 38.0056 232.017 37.4456L234.097 39.3656C233.43 40.179 232.604 40.799 231.617 41.2256C230.644 41.6523 229.544 41.8656 228.317 41.8656ZM240.814 41.7856C239.667 41.7856 238.647 41.5456 237.754 41.0656C236.874 40.5856 236.174 39.9323 235.654 39.1056C235.147 38.2656 234.894 37.3123 234.894 36.2456C234.894 35.1656 235.147 34.2123 235.654 33.3856C236.174 32.5456 236.874 31.8923 237.754 31.4256C238.647 30.9456 239.667 30.7056 240.814 30.7056C241.947 30.7056 242.961 30.9456 243.854 31.4256C244.747 31.8923 245.447 32.539 245.954 33.3656C246.461 34.1923 246.714 35.1523 246.714 36.2456C246.714 37.3123 246.461 38.2656 245.954 39.1056C245.447 39.9323 244.747 40.5856 243.854 41.0656C242.961 41.5456 241.947 41.7856 240.814 41.7856ZM240.814 39.2256C241.334 39.2256 241.801 39.1056 242.214 38.8656C242.627 38.6256 242.954 38.2856 243.194 37.8456C243.434 37.3923 243.554 36.859 243.554 36.2456C243.554 35.619 243.434 35.0856 243.194 34.6456C242.954 34.2056 242.627 33.8656 242.214 33.6256C241.801 33.3856 241.334 33.2656 240.814 33.2656C240.294 33.2656 239.827 33.3856 239.414 33.6256C239.001 33.8656 238.667 34.2056 238.414 34.6456C238.174 35.0856 238.054 35.619 238.054 36.2456C238.054 36.859 238.174 37.3923 238.414 37.8456C238.667 38.2856 239.001 38.6256 239.414 38.8656C239.827 39.1056 240.294 39.2256 240.814 39.2256ZM262.579 30.7056C263.433 30.7056 264.186 30.879 264.839 31.2256C265.506 31.559 266.026 32.079 266.399 32.7856C266.786 33.479 266.979 34.3723 266.979 35.4656V41.6256H263.859V35.9456C263.859 35.079 263.679 34.439 263.319 34.0256C262.959 33.6123 262.453 33.4056 261.799 33.4056C261.346 33.4056 260.939 33.5123 260.579 33.7256C260.219 33.9256 259.939 34.2323 259.739 34.6456C259.539 35.059 259.439 35.5856 259.439 36.2256V41.6256H256.319V35.9456C256.319 35.079 256.139 34.439 255.779 34.0256C255.433 33.6123 254.933 33.4056 254.279 33.4056C253.826 33.4056 253.419 33.5123 253.059 33.7256C252.699 33.9256 252.419 34.2323 252.219 34.6456C252.019 35.059 251.919 35.5856 251.919 36.2256V41.6256H248.799V30.8656H251.779V33.8056L251.219 32.9456C251.593 32.2123 252.119 31.659 252.799 31.2856C253.493 30.899 254.279 30.7056 255.159 30.7056C256.146 30.7056 257.006 30.959 257.739 31.4656C258.486 31.959 258.979 32.719 259.219 33.7456L258.119 33.4456C258.479 32.6056 259.053 31.939 259.839 31.4456C260.639 30.9523 261.553 30.7056 262.579 30.7056ZM283.556 30.7056C284.409 30.7056 285.163 30.879 285.816 31.2256C286.483 31.559 287.003 32.079 287.376 32.7856C287.763 33.479 287.956 34.3723 287.956 35.4656V41.6256H284.836V35.9456C284.836 35.079 284.656 34.439 284.296 34.0256C283.936 33.6123 283.429 33.4056 282.776 33.4056C282.323 33.4056 281.916 33.5123 281.556 33.7256C281.196 33.9256 280.916 34.2323 280.716 34.6456C280.516 35.059 280.416 35.5856 280.416 36.2256V41.6256H277.296V35.9456C277.296 35.079 277.116 34.439 276.756 34.0256C276.409 33.6123 275.909 33.4056 275.256 33.4056C274.803 33.4056 274.396 33.5123 274.036 33.7256C273.676 33.9256 273.396 34.2323 273.196 34.6456C272.996 35.059 272.896 35.5856 272.896 36.2256V41.6256H269.776V30.8656H272.756V33.8056L272.196 32.9456C272.569 32.2123 273.096 31.659 273.776 31.2856C274.469 30.899 275.256 30.7056 276.136 30.7056C277.123 30.7056 277.983 30.959 278.716 31.4656C279.463 31.959 279.956 32.719 280.196 33.7456L279.096 33.4456C279.456 32.6056 280.029 31.939 280.816 31.4456C281.616 30.9523 282.529 30.7056 283.556 30.7056ZM290.753 41.6256V30.8656H293.873V41.6256H290.753ZM292.313 29.3656C291.739 29.3656 291.273 29.199 290.913 28.8656C290.553 28.5323 290.373 28.119 290.373 27.6256C290.373 27.1323 290.553 26.719 290.913 26.3856C291.273 26.0523 291.739 25.8856 292.313 25.8856C292.886 25.8856 293.353 26.0456 293.713 26.3656C294.073 26.6723 294.253 27.0723 294.253 27.5656C294.253 28.0856 294.073 28.519 293.713 28.8656C293.366 29.199 292.899 29.3656 292.313 29.3656ZM301.168 41.7856C299.901 41.7856 298.915 41.4656 298.208 40.8256C297.501 40.1723 297.148 39.2056 297.148 37.9256V28.4856H300.268V37.8856C300.268 38.339 300.388 38.6923 300.628 38.9456C300.868 39.1856 301.195 39.3056 301.608 39.3056C302.101 39.3056 302.521 39.1723 302.868 38.9056L303.708 41.1056C303.388 41.3323 303.001 41.5056 302.548 41.6256C302.108 41.7323 301.648 41.7856 301.168 41.7856ZM295.488 33.5056V31.1056H302.948V33.5056L295.488 33.5056ZM319.24 30.7056C320.093 30.7056 320.846 30.879 321.5 31.2256C322.166 31.559 322.686 32.079 323.06 32.7856C323.446 33.479 323.64 34.3723 323.64 35.4656V41.6256H320.52V35.9456C320.52 35.079 320.34 34.439 319.98 34.0256C319.62 33.6123 319.113 33.4056 318.46 33.4056C318.006 33.4056 317.6 33.5123 317.24 33.7256C316.88 33.9256 316.6 34.2323 316.4 34.6456C316.2 35.059 316.1 35.5856 316.1 36.2256V41.6256H312.98V35.9456C312.98 35.079 312.8 34.439 312.44 34.0256C312.093 33.6123 311.593 33.4056 310.94 33.4056C310.486 33.4056 310.08 33.5123 309.72 33.7256C309.36 33.9256 309.08 34.2323 308.88 34.6456C308.68 35.059 308.58 35.5856 308.58 36.2256V41.6256H305.46V30.8656L308.44 30.8656V33.8056L307.88 32.9456C308.253 32.2123 308.78 31.659 309.46 31.2856C310.153 30.899 310.94 30.7056 311.82 30.7056C312.806 30.7056 313.666 30.959 314.4 31.4656C315.146 31.959 315.64 32.719 315.88 33.7456L314.78 33.4456C315.14 32.6056 315.713 31.939 316.5 31.4456C317.3 30.9523 318.213 30.7056 319.24 30.7056ZM331.854 41.7856C330.628 41.7856 329.548 41.5456 328.614 41.0656C327.694 40.5856 326.981 39.9323 326.474 39.1056C325.968 38.2656 325.714 37.3123 325.714 36.2456C325.714 35.1656 325.961 34.2123 326.454 33.3856C326.961 32.5456 327.648 31.8923 328.514 31.4256C329.381 30.9456 330.361 30.7056 331.454 30.7056C332.508 30.7056 333.454 30.9323 334.294 31.3856C335.148 31.8256 335.821 32.4656 336.314 33.3056C336.808 34.1323 337.054 35.1256 337.054 36.2856C337.054 36.4056 337.048 36.5456 337.034 36.7056C337.021 36.8523 337.008 36.9923 336.994 37.1256H328.254V35.3056H335.354L334.154 35.8456C334.154 35.2856 334.041 34.799 333.814 34.3856C333.588 33.9723 333.274 33.6523 332.874 33.4256C332.474 33.1856 332.008 33.0656 331.474 33.0656C330.941 33.0656 330.468 33.1856 330.054 33.4256C329.654 33.6523 329.341 33.979 329.114 34.4056C328.888 34.819 328.774 35.3123 328.774 35.8856V36.3656C328.774 36.9523 328.901 37.4723 329.154 37.9256C329.421 38.3656 329.788 38.7056 330.254 38.9456C330.734 39.1723 331.294 39.2856 331.934 39.2856C332.508 39.2856 333.008 39.199 333.434 39.0256C333.874 38.8523 334.274 38.5923 334.634 38.2456L336.294 40.0456C335.801 40.6056 335.181 41.039 334.434 41.3456C333.688 41.639 332.828 41.7856 331.854 41.7856ZM345.671 30.7056C346.525 30.7056 347.285 30.879 347.951 31.2256C348.631 31.559 349.165 32.079 349.551 32.7856C349.938 33.479 350.131 34.3723 350.131 35.4656V41.6256H347.011V35.9456C347.011 35.079 346.818 34.439 346.431 34.0256C346.058 33.6123 345.525 33.4056 344.831 33.4056C344.338 33.4056 343.891 33.5123 343.491 33.7256C343.105 33.9256 342.798 34.239 342.571 34.6656C342.358 35.0923 342.251 35.639 342.251 36.3056V41.6256L339.131 41.6256V30.8656H342.111V33.8456L341.551 32.9456C341.938 32.2256 342.491 31.6723 343.211 31.2856C343.931 30.899 344.751 30.7056 345.671 30.7056ZM357.36 41.7856C356.093 41.7856 355.106 41.4656 354.4 40.8256C353.693 40.1723 353.34 39.2056 353.34 37.9256V28.4856H356.46V37.8856C356.46 38.339 356.58 38.6923 356.82 38.9456C357.06 39.1856 357.386 39.3056 357.8 39.3056C358.293 39.3056 358.713 39.1723 359.06 38.9056L359.9 41.1056C359.58 41.3323 359.193 41.5056 358.74 41.6256C358.3 41.7323 357.84 41.7856 357.36 41.7856ZM351.68 33.5056V31.1056H359.14V33.5056H351.68ZM363.026 41.7856C362.493 41.7856 362.033 41.6056 361.646 41.2456C361.273 40.8723 361.086 40.399 361.086 39.8256C361.086 39.2523 361.273 38.7923 361.646 38.4456C362.033 38.0856 362.493 37.9056 363.026 37.9056C363.573 37.9056 364.033 38.0856 364.406 38.4456C364.78 38.7923 364.966 39.2523 364.966 39.8256C364.966 40.399 364.78 40.8723 364.406 41.2456C364.033 41.6056 363.573 41.7856 363.026 41.7856Z" fill="url(#paint1_linear_1_8)"/>
<defs>
<linearGradient id="paint0_linear_1_8" x1="1.68955e-07" y1="-0.00990235" x2="390.52" y2="122.892" gradientUnits="userSpaceOnUse">
<stop stop-color="#AD37E0"/>
<stop offset="1" stop-color="#EE2B3B"/>
</linearGradient>
<linearGradient id="paint1_linear_1_8" x1="-25.1698" y1="21.1617" x2="115.018" y2="238.873" gradientUnits="userSpaceOnUse">
<stop stop-color="#AD37E0"/>
<stop offset="1" stop-color="#EE2B3B"/>
</linearGradient>
</defs>
</svg>
